<svg width="17" height="17" viewBox="0 0 17 17" fill="none" xmlns="http://www.w3.org/2000/svg">
<path fill-rule="evenodd" clip-rule="evenodd" d="M0.929124 0.928909C1.31965 0.538384 1.97762 0.563195 2.39875 0.984325L16.1242 14.7098C16.5453 15.1309 16.5701 15.7889 16.1796 16.1794C15.7891 16.5699 15.1311 16.5451 14.71 16.124L0.984541 2.39854C0.56341 1.97741 0.538599 1.31943 0.929124 0.928909Z" fill="#5B4A58"/>
<path fill-rule="evenodd" clip-rule="evenodd" d="M0.929031 16.071C0.538506 15.6805 0.557084 15.0287 0.970526 14.6153L14.4454 1.14046C14.8588 0.727014 15.5105 0.708436 15.9011 1.09896C16.2916 1.48948 16.273 2.14123 15.8596 2.55467L2.38474 16.0295C1.9713 16.4429 1.31955 16.4615 0.929031 16.071Z" fill="#5B4A58"/>
</svg>
