<svg width="14" height="14" viewBox="0 0 14 14" fill="none" xmlns="http://www.w3.org/2000/svg">
<g clip-path="url(#clip0_3487_848)">
<path fill-rule="evenodd" clip-rule="evenodd" d="M2.33398 2.91667C2.17927 2.91667 2.0309 2.97812 1.92151 3.08752C1.81211 3.19692 1.75065 3.34529 1.75065 3.5V11.6667C1.75065 11.8214 1.81211 11.9697 1.92151 12.0791C2.0309 12.1885 2.17928 12.25 2.33398 12.25H10.5007C10.6554 12.25 10.8037 12.1885 10.9131 12.0791C11.0225 11.9697 11.084 11.8214 11.084 11.6667V8.55167C11.084 8.2295 11.3452 7.96833 11.6673 7.96833C11.9895 7.96833 12.2507 8.2295 12.2507 8.55167V11.6667C12.2507 12.1308 12.0663 12.5759 11.7381 12.9041C11.4099 13.2323 10.9648 13.4167 10.5007 13.4167H2.33398C1.86986 13.4167 1.42474 13.2323 1.09655 12.9041C0.768359 12.5759 0.583984 12.1308 0.583984 11.6667V3.5C0.583984 3.03587 0.768359 2.59075 1.09655 2.26256C1.42474 1.93437 1.86986 1.75 2.33398 1.75H5.44898C5.77115 1.75 6.03232 2.01117 6.03232 2.33333C6.03232 2.6555 5.77115 2.91667 5.44898 2.91667H2.33398Z" fill="#5B4A58"/>
<path fill-rule="evenodd" clip-rule="evenodd" d="M10.0882 0.754167C10.316 0.526362 10.6853 0.526362 10.9131 0.754167L13.2465 3.0875C13.4743 3.31531 13.4743 3.68465 13.2465 3.91246L7.41313 9.74579C7.30373 9.85519 7.15536 9.91665 7.00065 9.91665H4.66732C4.34515 9.91665 4.08398 9.65548 4.08398 9.33331V6.99998C4.08398 6.84527 4.14544 6.6969 4.25484 6.5875L10.0882 0.754167ZM5.25065 7.2416V8.74998H6.75903L12.009 3.49998L10.5007 1.9916L5.25065 7.2416Z" fill="#5B4A58"/>
</g>
<defs>
<clipPath id="clip0_3487_848">
<rect width="14" height="14" fill="white"/>
</clipPath>
</defs>
</svg>
