<svg width="11" height="15" viewBox="0 0 11 15" fill="none" xmlns="http://www.w3.org/2000/svg">
<path id="&#239;&#130;&#149;" d="M9.48755 14.3642L10.6984 12.0865C10.8372 11.8484 10.7722 11.5308 10.5467 11.3452L8.23231 9.52407C8.02388 9.36814 7.74832 9.36937 7.53486 9.51234L5.98604 10.6236C4.43701 9.3078 3.33702 7.43673 2.96116 5.38438L4.69797 4.5987C4.92852 4.48533 5.06736 4.2473 5.03653 3.98883L4.61657 1.07394C4.56865 0.785866 4.31979 0.594078 4.05048 0.57196L1.47248 0.481692C1.19691 0.482919 0.977203 0.649237 0.902139 0.929377C-0.699209 6.90569 2.83211 13.0563 8.83177 14.6639C9.08856 14.7327 9.34871 14.6022 9.48755 14.3642Z" fill="white"/>
</svg>
