<svg width="20" height="20" viewBox="0 0 20 20" fill="none" xmlns="http://www.w3.org/2000/svg">
<rect x="0.5" y="0.5" width="18.114" height="18.114" rx="9.05701" stroke="#5B4A58"/>
<path fill-rule="evenodd" clip-rule="evenodd" d="M4.90459 13.0708C5.50192 12.4735 6.31207 12.1379 7.15683 12.1379H12.2531C13.0978 12.1379 13.908 12.4735 14.5053 13.0708C15.1026 13.6681 15.4382 14.4783 15.4382 15.323V16.5971C15.4382 16.9489 15.153 17.2341 14.8012 17.2341C14.4494 17.2341 14.1641 16.9489 14.1641 16.5971V15.323C14.1641 14.8162 13.9628 14.3301 13.6044 13.9717C13.246 13.6133 12.7599 13.4119 12.2531 13.4119H7.15683C6.64997 13.4119 6.16388 13.6133 5.80548 13.9717C5.44708 14.3301 5.24574 14.8162 5.24574 15.323V16.5971C5.24574 16.9489 4.96053 17.2341 4.60871 17.2341C4.25689 17.2341 3.97168 16.9489 3.97168 16.5971V15.323C3.97168 14.4783 4.30726 13.6681 4.90459 13.0708Z" fill="#5B4A58"/>
<path fill-rule="evenodd" clip-rule="evenodd" d="M9.70517 5.76765C8.6497 5.76765 7.79408 6.62327 7.79408 7.67874C7.79408 8.7342 8.6497 9.58982 9.70517 9.58982C10.7606 9.58982 11.6163 8.7342 11.6163 7.67874C11.6163 6.62327 10.7606 5.76765 9.70517 5.76765ZM6.52002 7.67874C6.52002 5.91963 7.94606 4.49359 9.70517 4.49359C11.4643 4.49359 12.8903 5.91963 12.8903 7.67874C12.8903 9.43784 11.4643 10.8639 9.70517 10.8639C7.94606 10.8639 6.52002 9.43784 6.52002 7.67874Z" fill="#5B4A58"/>
</svg>
